[STREAM]
index=0
codec_name=mp3
codec_long_name=MP3 (MPEG audio layer 3)
profile=unknown
codec_type=audio
codec_time_base=1/44100
codec_tag_string=[0][0][0][0]
codec_tag=0x0000
sample_fmt=fltp
sample_rate=44100
channels=1
channel_layout=mono
bits_per_sample=0
id=N/A
r_frame_rate=0/0
avg_frame_rate=0/0
time_base=1/14112000
start_pts=353600
start_time=0.025057
duration_ts=32808960
duration=2.324898
bit_rate=96000
max_bit_rate=N/A
bits_per_raw_sample=N/A
nb_frames=N/A
nb_read_frames=N/A
nb_read_packets=N/A
DISPOSITION:default=0
DISPOSITION:dub=0
DISPOSITION:original=0
DISPOSITION:comment=0
DISPOSITION:lyrics=0
DISPOSITION:karaoke=0
DISPOSITION:forced=0
DISPOSITION:hearing_impaired=0
DISPOSITION:visual_impaired=0
DISPOSITION:clean_effects=0
DISPOSITION:attached_pic=0
DISPOSITION:timed_thumbnails=0
TAG:encoder=LAME3.100
[/STREAM]
[STREAM]
index=0
codec_name=mp3
codec_long_name=MP3 (MPEG audio layer 3)
profile=unknown
codec_type=audio
codec_time_base=1/44100
codec_tag_string=[0][0][0][0]
codec_tag=0x0000
sample_fmt=fltp
sample_rate=44100
channels=1
channel_layout=mono
bits_per_sample=0
id=N/A
r_frame_rate=0/0
avg_frame_rate=0/0
time_base=1/14112000
start_pts=353600
start_time=0.025057
duration_ts=10321920
duration=0.731429
bit_rate=96000
max_bit_rate=N/A
bits_per_raw_sample=N/A
nb_frames=N/A
nb_read_frames=N/A
nb_read_packets=N/A
DISPOSITION:default=0
DISPOSITION:dub=0
DISPOSITION:original=0
DISPOSITION:comment=0
DISPOSITION:lyrics=0
DISPOSITION:karaoke=0
DISPOSITION:forced=0
DISPOSITION:hearing_impaired=0
DISPOSITION:visual_impaired=0
DISPOSITION:clean_effects=0
DISPOSITION:attached_pic=0
DISPOSITION:timed_thumbnails=0
TAG:encoder=LAME3.100
[/STREAM]
[STREAM]
index=0
codec_name=mp3
codec_long_name=MP3 (MPEG audio layer 3)
profile=unknown
codec_type=audio
codec_time_base=1/44100
codec_tag_string=[0][0][0][0]
codec_tag=0x0000
sample_fmt=fltp
sample_rate=44100
channels=1
channel_layout=mono
bits_per_sample=0
id=N/A
r_frame_rate=0/0
avg_frame_rate=0/0
time_base=1/14112000
start_pts=353600
start_time=0.025057
duration_ts=36495360
duration=2.586122
bit_rate=96000
max_bit_rate=N/A
bits_per_raw_sample=N/A
nb_frames=N/A
nb_read_frames=N/A
nb_read_packets=N/A
DISPOSITION:default=0
DISPOSITION:dub=0
DISPOSITION:original=0
DISPOSITION:comment=0
DISPOSITION:lyrics=0
DISPOSITION:karaoke=0
DISPOSITION:forced=0
DISPOSITION:hearing_impaired=0
DISPOSITION:visual_impaired=0
DISPOSITION:clean_effects=0
DISPOSITION:attached_pic=0
DISPOSITION:timed_thumbnails=0
TAG:encoder=LAME3.100
[/STREAM]
[STREAM]
index=0
codec_name=mp3
codec_long_name=MP3 (MPEG audio layer 3)
profile=unknown
codec_type=audio
codec_time_base=1/44100
codec_tag_string=[0][0][0][0]
codec_tag=0x0000
sample_fmt=fltp
sample_rate=44100
channels=1
channel_layout=mono
bits_per_sample=0
id=N/A
r_frame_rate=0/0
avg_frame_rate=0/0
time_base=1/14112000
start_pts=353600
start_time=0.025057
duration_ts=18800640
duration=1.332245
bit_rate=96000
max_bit_rate=N/A
bits_per_raw_sample=N/A
nb_frames=N/A
nb_read_frames=N/A
nb_read_packets=N/A
DISPOSITION:default=0
DISPOSITION:dub=0
DISPOSITION:original=0
DISPOSITION:comment=0
DISPOSITION:lyrics=0
DISPOSITION:karaoke=0
DISPOSITION:forced=0
DISPOSITION:hearing_impaired=0
DISPOSITION:visual_impaired=0
DISPOSITION:clean_effects=0
DISPOSITION:attached_pic=0
DISPOSITION:timed_thumbnails=0
TAG:encoder=LAME3.100
[/STREAM]
[STREAM]
index=0
codec_name=mp3
codec_long_name=MP3 (MPEG audio layer 3)
profile=unknown
codec_type=audio
codec_time_base=1/22050
codec_tag_string=[0][0][0][0]
codec_tag=0x0000
sample_fmt=fltp
sample_rate=22050
channels=1
channel_layout=mono
bits_per_sample=0
id=N/A
r_frame_rate=0/0
avg_frame_rate=0/0
time_base=1/14112000
start_pts=707200
start_time=0.050113
duration_ts=215285760
duration=15.255510
bit_rate=96000
max_bit_rate=N/A
bits_per_raw_sample=N/A
nb_frames=N/A
nb_read_frames=N/A
nb_read_packets=N/A
DISPOSITION:default=0
DISPOSITION:dub=0
DISPOSITION:original=0
DISPOSITION:comment=0
DISPOSITION:lyrics=0
DISPOSITION:karaoke=0
DISPOSITION:forced=0
DISPOSITION:hearing_impaired=0
DISPOSITION:visual_impaired=0
DISPOSITION:clean_effects=0
DISPOSITION:attached_pic=0
DISPOSITION:timed_thumbnails=0
TAG:encoder=LAME3.100
[/STREAM]
[STREAM]
index=0
codec_name=mp3
codec_long_name=MP3 (MPEG audio layer 3)
profile=unknown
codec_type=audio
codec_time_base=1/44100
codec_tag_string=[0][0][0][0]
codec_tag=0x0000
sample_fmt=fltp
sample_rate=44100
channels=1
channel_layout=mono
bits_per_sample=0
id=N/A
r_frame_rate=0/0
avg_frame_rate=0/0
time_base=1/14112000
start_pts=353600
start_time=0.025057
duration_ts=6266880
duration=0.444082
bit_rate=96000
max_bit_rate=N/A
bits_per_raw_sample=N/A
nb_frames=N/A
nb_read_frames=N/A
nb_read_packets=N/A
DISPOSITION:default=0
DISPOSITION:dub=0
DISPOSITION:original=0
DISPOSITION:comment=0
DISPOSITION:lyrics=0
DISPOSITION:karaoke=0
DISPOSITION:forced=0
DISPOSITION:hearing_impaired=0
DISPOSITION:visual_impaired=0
DISPOSITION:clean_effects=0
DISPOSITION:attached_pic=0
DISPOSITION:timed_thumbnails=0
TAG:encoder=LAME3.100
[/STREAM]
[STREAM]
index=0
codec_name=mp3
codec_long_name=MP3 (MPEG audio layer 3)
profile=unknown
codec_type=audio
codec_time_base=1/44100
codec_tag_string=[0][0][0][0]
codec_tag=0x0000
sample_fmt=fltp
sample_rate=44100
channels=1
channel_layout=mono
bits_per_sample=0
id=N/A
r_frame_rate=0/0
avg_frame_rate=0/0
time_base=1/14112000
start_pts=353600
start_time=0.025057
duration_ts=4055040
duration=0.287347
bit_rate=96000
max_bit_rate=N/A
bits_per_raw_sample=N/A
nb_frames=N/A
nb_read_frames=N/A
nb_read_packets=N/A
DISPOSITION:default=0
DISPOSITION:dub=0
DISPOSITION:original=0
DISPOSITION:comment=0
DISPOSITION:lyrics=0
DISPOSITION:karaoke=0
DISPOSITION:forced=0
DISPOSITION:hearing_impaired=0
DISPOSITION:visual_impaired=0
DISPOSITION:clean_effects=0
DISPOSITION:attached_pic=0
DISPOSITION:timed_thumbnails=0
TAG:encoder=LAME3.100
[/STREAM]
[STREAM]
index=0
codec_name=mp3
codec_long_name=MP3 (MPEG audio layer 3)
profile=unknown
codec_type=audio
codec_time_base=1/44100
codec_tag_string=[0][0][0][0]
codec_tag=0x0000
sample_fmt=fltp
sample_rate=44100
channels=1
channel_layout=mono
bits_per_sample=0
id=N/A
r_frame_rate=0/0
avg_frame_rate=0/0
time_base=1/14112000
start_pts=353600
start_time=0.025057
duration_ts=53452800
duration=3.787755
bit_rate=96000
max_bit_rate=N/A
bits_per_raw_sample=N/A
nb_frames=N/A
nb_read_frames=N/A
nb_read_packets=N/A
DISPOSITION:default=0
DISPOSITION:dub=0
DISPOSITION:original=0
DISPOSITION:comment=0
DISPOSITION:lyrics=0
DISPOSITION:karaoke=0
DISPOSITION:forced=0
DISPOSITION:hearing_impaired=0
DISPOSITION:visual_impaired=0
DISPOSITION:clean_effects=0
DISPOSITION:attached_pic=0
DISPOSITION:timed_thumbnails=0
TAG:encoder=LAME3.100
[/STREAM]
[STREAM]
index=0
codec_name=mp3
codec_long_name=MP3 (MPEG audio layer 3)
profile=unknown
codec_type=audio
codec_time_base=1/48000
codec_tag_string=[0][0][0][0]
codec_tag=0x0000
sample_fmt=fltp
sample_rate=48000
channels=1
channel_layout=mono
bits_per_sample=0
id=N/A
r_frame_rate=0/0
avg_frame_rate=0/0
time_base=1/14112000
start_pts=324870
start_time=0.023021
duration_ts=129378816
duration=9.168000
bit_rate=96000
max_bit_rate=N/A
bits_per_raw_sample=N/A
nb_frames=N/A
nb_read_frames=N/A
nb_read_packets=N/A
DISPOSITION:default=0
DISPOSITION:dub=0
DISPOSITION:original=0
DISPOSITION:comment=0
DISPOSITION:lyrics=0
DISPOSITION:karaoke=0
DISPOSITION:forced=0
DISPOSITION:hearing_impaired=0
DISPOSITION:visual_impaired=0
DISPOSITION:clean_effects=0
DISPOSITION:attached_pic=0
DISPOSITION:timed_thumbnails=0
TAG:encoder=LAME3.100
[/STREAM]
[STREAM]
index=0
codec_name=mp3
codec_long_name=MP3 (MPEG audio layer 3)
profile=unknown
codec_type=audio
codec_time_base=1/44100
codec_tag_string=[0][0][0][0]
codec_tag=0x0000
sample_fmt=fltp
sample_rate=44100
channels=1
channel_layout=mono
bits_per_sample=0
id=N/A
r_frame_rate=0/0
avg_frame_rate=0/0
time_base=1/14112000
start_pts=353600
start_time=0.025057
duration_ts=128286720
duration=9.090612
bit_rate=96000
max_bit_rate=N/A
bits_per_raw_sample=N/A
nb_frames=N/A
nb_read_frames=N/A
nb_read_packets=N/A
DISPOSITION:default=0
DISPOSITION:dub=0
DISPOSITION:original=0
DISPOSITION:comment=0
DISPOSITION:lyrics=0
DISPOSITION:karaoke=0
DISPOSITION:forced=0
DISPOSITION:hearing_impaired=0
DISPOSITION:visual_impaired=0
DISPOSITION:clean_effects=0
DISPOSITION:attached_pic=0
DISPOSITION:timed_thumbnails=0
TAG:encoder=LAME3.100
[/STREAM]
[STREAM]
index=0
codec_name=mp3
codec_long_name=MP3 (MPEG audio layer 3)
profile=unknown
codec_type=audio
codec_time_base=1/48000
codec_tag_string=[0][0][0][0]
codec_tag=0x0000
sample_fmt=fltp
sample_rate=48000
channels=1
channel_layout=mono
bits_per_sample=0
id=N/A
r_frame_rate=0/0
avg_frame_rate=0/0
time_base=1/14112000
start_pts=324870
start_time=0.023021
duration_ts=12531456
duration=0.888000
bit_rate=96000
max_bit_rate=N/A
bits_per_raw_sample=N/A
nb_frames=N/A
nb_read_frames=N/A
nb_read_packets=N/A
DISPOSITION:default=0
DISPOSITION:dub=0
DISPOSITION:original=0
DISPOSITION:comment=0
DISPOSITION:lyrics=0
DISPOSITION:karaoke=0
DISPOSITION:forced=0
DISPOSITION:hearing_impaired=0
DISPOSITION:visual_impaired=0
DISPOSITION:clean_effects=0
DISPOSITION:attached_pic=0
DISPOSITION:timed_thumbnails=0
TAG:encoder=LAME3.100
[/STREAM]
[STREAM]
index=0
codec_name=mp3
codec_long_name=MP3 (MPEG audio layer 3)
profile=unknown
codec_type=audio
codec_time_base=1/44100
codec_tag_string=[0][0][0][0]
codec_tag=0x0000
sample_fmt=fltp
sample_rate=44100
channels=1
channel_layout=mono
bits_per_sample=0
id=N/A
r_frame_rate=0/0
avg_frame_rate=0/0
time_base=1/14112000
start_pts=353600
start_time=0.025057
duration_ts=110223360
duration=7.810612
bit_rate=96000
max_bit_rate=N/A
bits_per_raw_sample=N/A
nb_frames=N/A
nb_read_frames=N/A
nb_read_packets=N/A
DISPOSITION:default=0
DISPOSITION:dub=0
DISPOSITION:original=0
DISPOSITION:comment=0
DISPOSITION:lyrics=0
DISPOSITION:karaoke=0
DISPOSITION:forced=0
DISPOSITION:hearing_impaired=0
DISPOSITION:visual_impaired=0
DISPOSITION:clean_effects=0
DISPOSITION:attached_pic=0
DISPOSITION:timed_thumbnails=0
TAG:encoder=LAME3.100
[/STREAM]
[STREAM]
index=0
codec_name=mp3
codec_long_name=MP3 (MPEG audio layer 3)
profile=unknown
codec_type=audio
codec_time_base=1/44100
codec_tag_string=[0][0][0][0]
codec_tag=0x0000
sample_fmt=fltp
sample_rate=44100
channels=1
channel_layout=mono
bits_per_sample=0
id=N/A
r_frame_rate=0/0
avg_frame_rate=0/0
time_base=1/14112000
start_pts=353600
start_time=0.025057
duration_ts=25804800
duration=1.828571
bit_rate=96000
max_bit_rate=N/A
bits_per_raw_sample=N/A
nb_frames=N/A
nb_read_frames=N/A
nb_read_packets=N/A
DISPOSITION:default=0
DISPOSITION:dub=0
DISPOSITION:original=0
DISPOSITION:comment=0
DISPOSITION:lyrics=0
DISPOSITION:karaoke=0
DISPOSITION:forced=0
DISPOSITION:hearing_impaired=0
DISPOSITION:visual_impaired=0
DISPOSITION:clean_effects=0
DISPOSITION:attached_pic=0
DISPOSITION:timed_thumbnails=0
TAG:encoder=LAME3.100
[/STREAM]
[STREAM]
index=0
codec_name=mp3
codec_long_name=MP3 (MPEG audio layer 3)
profile=unknown
codec_type=audio
codec_time_base=1/44100
codec_tag_string=[0][0][0][0]
codec_tag=0x0000
sample_fmt=fltp
sample_rate=44100
channels=1
channel_layout=mono
bits_per_sample=0
id=N/A
r_frame_rate=0/0
avg_frame_rate=0/0
time_base=1/14112000
start_pts=353600
start_time=0.025057
duration_ts=78151680
duration=5.537959
bit_rate=96000
max_bit_rate=N/A
bits_per_raw_sample=N/A
nb_frames=N/A
nb_read_frames=N/A
nb_read_packets=N/A
DISPOSITION:default=0
DISPOSITION:dub=0
DISPOSITION:original=0
DISPOSITION:comment=0
DISPOSITION:lyrics=0
DISPOSITION:karaoke=0
DISPOSITION:forced=0
DISPOSITION:hearing_impaired=0
DISPOSITION:visual_impaired=0
DISPOSITION:clean_effects=0
DISPOSITION:attached_pic=0
DISPOSITION:timed_thumbnails=0
TAG:encoder=LAME3.100
[/STREAM]
[STREAM]
index=0
codec_name=mp3
codec_long_name=MP3 (MPEG audio layer 3)
profile=unknown
codec_type=audio
codec_time_base=1/44100
codec_tag_string=[0][0][0][0]
codec_tag=0x0000
sample_fmt=fltp
sample_rate=44100
channels=1
channel_layout=mono
bits_per_sample=0
id=N/A
r_frame_rate=0/0
avg_frame_rate=0/0
time_base=1/14112000
start_pts=353600
start_time=0.025057
duration_ts=151879680
duration=10.762449
bit_rate=96000
max_bit_rate=N/A
bits_per_raw_sample=N/A
nb_frames=N/A
nb_read_frames=N/A
nb_read_packets=N/A
DISPOSITION:default=0
DISPOSITION:dub=0
DISPOSITION:original=0
DISPOSITION:comment=0
DISPOSITION:lyrics=0
DISPOSITION:karaoke=0
DISPOSITION:forced=0
DISPOSITION:hearing_impaired=0
DISPOSITION:visual_impaired=0
DISPOSITION:clean_effects=0
DISPOSITION:attached_pic=0
DISPOSITION:timed_thumbnails=0
TAG:encoder=LAME3.100
[/STREAM]
[STREAM]
index=0
codec_name=mp3
codec_long_name=MP3 (MPEG audio layer 3)
profile=unknown
codec_type=audio
codec_time_base=1/44100
codec_tag_string=[0][0][0][0]
codec_tag=0x0000
sample_fmt=fltp
sample_rate=44100
channels=1
channel_layout=mono
bits_per_sample=0
id=N/A
r_frame_rate=0/0
avg_frame_rate=0/0
time_base=1/14112000
start_pts=353600
start_time=0.025057
duration_ts=239984640
duration=17.005714
bit_rate=96000
max_bit_rate=N/A
bits_per_raw_sample=N/A
nb_frames=N/A
nb_read_frames=N/A
nb_read_packets=N/A
DISPOSITION:default=0
DISPOSITION:dub=0
DISPOSITION:original=0
DISPOSITION:comment=0
DISPOSITION:lyrics=0
DISPOSITION:karaoke=0
DISPOSITION:forced=0
DISPOSITION:hearing_impaired=0
DISPOSITION:visual_impaired=0
DISPOSITION:clean_effects=0
DISPOSITION:attached_pic=0
DISPOSITION:timed_thumbnails=0
TAG:encoder=LAME3.100
[/STREAM]
[STREAM]
index=0
codec_name=mp3
codec_long_name=MP3 (MPEG audio layer 3)
profile=unknown
codec_type=audio
codec_time_base=1/44100
codec_tag_string=[0][0][0][0]
codec_tag=0x0000
sample_fmt=fltp
sample_rate=44100
channels=1
channel_layout=mono
bits_per_sample=0
id=N/A
r_frame_rate=0/0
avg_frame_rate=0/0
time_base=1/14112000
start_pts=353600
start_time=0.025057
duration_ts=104325120
duration=7.392653
bit_rate=96000
max_bit_rate=N/A
bits_per_raw_sample=N/A
nb_frames=N/A
nb_read_frames=N/A
nb_read_packets=N/A
DISPOSITION:default=0
DISPOSITION:dub=0
DISPOSITION:original=0
DISPOSITION:comment=0
DISPOSITION:lyrics=0
DISPOSITION:karaoke=0
DISPOSITION:forced=0
DISPOSITION:hearing_impaired=0
DISPOSITION:visual_impaired=0
DISPOSITION:clean_effects=0
DISPOSITION:attached_pic=0
DISPOSITION:timed_thumbnails=0
TAG:encoder=LAME3.100
[/STREAM]
[STREAM]
index=0
codec_name=mp3
codec_long_name=MP3 (MPEG audio layer 3)
profile=unknown
codec_type=audio
codec_time_base=1/48000
codec_tag_string=[0][0][0][0]
codec_tag=0x0000
sample_fmt=fltp
sample_rate=48000
channels=1
channel_layout=mono
bits_per_sample=0
id=N/A
r_frame_rate=0/0
avg_frame_rate=0/0
time_base=1/14112000
start_pts=324870
start_time=0.023021
duration_ts=31836672
duration=2.256000
bit_rate=96000
max_bit_rate=N/A
bits_per_raw_sample=N/A
nb_frames=N/A
nb_read_frames=N/A
nb_read_packets=N/A
DISPOSITION:default=0
DISPOSITION:dub=0
DISPOSITION:original=0
DISPOSITION:comment=0
DISPOSITION:lyrics=0
DISPOSITION:karaoke=0
DISPOSITION:forced=0
DISPOSITION:hearing_impaired=0
DISPOSITION:visual_impaired=0
DISPOSITION:clean_effects=0
DISPOSITION:attached_pic=0
DISPOSITION:timed_thumbnails=0
TAG:encoder=LAME3.100
[/STREAM]
[STREAM]
index=0
codec_name=mp3
codec_long_name=MP3 (MPEG audio layer 3)
profile=unknown
codec_type=audio
codec_time_base=1/44100
codec_tag_string=[0][0][0][0]
codec_tag=0x0000
sample_fmt=fltp
sample_rate=44100
channels=1
channel_layout=mono
bits_per_sample=0
id=N/A
r_frame_rate=0/0
avg_frame_rate=0/0
time_base=1/14112000
start_pts=353600
start_time=0.025057
duration_ts=161095680
duration=11.415510
bit_rate=96000
max_bit_rate=N/A
bits_per_raw_sample=N/A
nb_frames=N/A
nb_read_frames=N/A
nb_read_packets=N/A
DISPOSITION:default=0
DISPOSITION:dub=0
DISPOSITION:original=0
DISPOSITION:comment=0
DISPOSITION:lyrics=0
DISPOSITION:karaoke=0
DISPOSITION:forced=0
DISPOSITION:hearing_impaired=0
DISPOSITION:visual_impaired=0
DISPOSITION:clean_effects=0
DISPOSITION:attached_pic=0
DISPOSITION:timed_thumbnails=0
TAG:encoder=LAME3.100
[/STREAM]
[STREAM]
index=0
codec_name=mp3
codec_long_name=MP3 (MPEG audio layer 3)
profile=unknown
codec_type=audio
codec_time_base=1/44100
codec_tag_string=[0][0][0][0]
codec_tag=0x0000
sample_fmt=fltp
sample_rate=44100
channels=1
channel_layout=mono
bits_per_sample=0
id=N/A
r_frame_rate=0/0
avg_frame_rate=0/0
time_base=1/14112000
start_pts=353600
start_time=0.025057
duration_ts=50872320
duration=3.604898
bit_rate=96000
max_bit_rate=N/A
bits_per_raw_sample=N/A
nb_frames=N/A
nb_read_frames=N/A
nb_read_packets=N/A
DISPOSITION:default=0
DISPOSITION:dub=0
DISPOSITION:original=0
DISPOSITION:comment=0
DISPOSITION:lyrics=0
DISPOSITION:karaoke=0
DISPOSITION:forced=0
DISPOSITION:hearing_impaired=0
DISPOSITION:visual_impaired=0
DISPOSITION:clean_effects=0
DISPOSITION:attached_pic=0
DISPOSITION:timed_thumbnails=0
TAG:encoder=LAME3.100
[/STREAM]
[STREAM]
index=0
codec_name=mp3
codec_long_name=MP3 (MPEG audio layer 3)
profile=unknown
codec_type=audio
codec_time_base=1/48000
codec_tag_string=[0][0][0][0]
codec_tag=0x0000
sample_fmt=fltp
sample_rate=48000
channels=1
channel_layout=mono
bits_per_sample=0
id=N/A
r_frame_rate=0/0
avg_frame_rate=0/0
time_base=1/14112000
start_pts=324870
start_time=0.023021
duration_ts=35223552
duration=2.496000
bit_rate=96000
max_bit_rate=N/A
bits_per_raw_sample=N/A
nb_frames=N/A
nb_read_frames=N/A
nb_read_packets=N/A
DISPOSITION:default=0
DISPOSITION:dub=0
DISPOSITION:original=0
DISPOSITION:comment=0
DISPOSITION:lyrics=0
DISPOSITION:karaoke=0
DISPOSITION:forced=0
DISPOSITION:hearing_impaired=0
DISPOSITION:visual_impaired=0
DISPOSITION:clean_effects=0
DISPOSITION:attached_pic=0
DISPOSITION:timed_thumbnails=0
TAG:encoder=LAME3.100
[/STREAM]
[STREAM]
index=0
codec_name=mp3
codec_long_name=MP3 (MPEG audio layer 3)
profile=unknown
codec_type=audio
codec_time_base=1/44100
codec_tag_string=[0][0][0][0]
codec_tag=0x0000
sample_fmt=fltp
sample_rate=44100
channels=1
channel_layout=mono
bits_per_sample=0
id=N/A
r_frame_rate=0/0
avg_frame_rate=0/0
time_base=1/14112000
start_pts=353600
start_time=0.025057
duration_ts=43130880
duration=3.056327
bit_rate=96000
max_bit_rate=N/A
bits_per_raw_sample=N/A
nb_frames=N/A
nb_read_frames=N/A
nb_read_packets=N/A
DISPOSITION:default=0
DISPOSITION:dub=0
DISPOSITION:original=0
DISPOSITION:comment=0
DISPOSITION:lyrics=0
DISPOSITION:karaoke=0
DISPOSITION:forced=0
DISPOSITION:hearing_impaired=0
DISPOSITION:visual_impaired=0
DISPOSITION:clean_effects=0
DISPOSITION:attached_pic=0
DISPOSITION:timed_thumbnails=0
TAG:encoder=LAME3.100
[/STREAM]
[STREAM]
index=0
codec_name=mp3
codec_long_name=MP3 (MPEG audio layer 3)
profile=unknown
codec_type=audio
codec_time_base=1/44100
codec_tag_string=[0][0][0][0]
codec_tag=0x0000
sample_fmt=fltp
sample_rate=44100
channels=1
channel_layout=mono
bits_per_sample=0
id=N/A
r_frame_rate=0/0
avg_frame_rate=0/0
time_base=1/14112000
start_pts=353600
start_time=0.025057
duration_ts=14376960
duration=1.018776
bit_rate=96000
max_bit_rate=N/A
bits_per_raw_sample=N/A
nb_frames=N/A
nb_read_frames=N/A
nb_read_packets=N/A
DISPOSITION:default=0
DISPOSITION:dub=0
DISPOSITION:original=0
DISPOSITION:comment=0
DISPOSITION:lyrics=0
DISPOSITION:karaoke=0
DISPOSITION:forced=0
DISPOSITION:hearing_impaired=0
DISPOSITION:visual_impaired=0
DISPOSITION:clean_effects=0
DISPOSITION:attached_pic=0
DISPOSITION:timed_thumbnails=0
TAG:encoder=LAME3.100
[/STREAM]
[STREAM]
index=0
codec_name=mp3
codec_long_name=MP3 (MPEG audio layer 3)
profile=unknown
codec_type=audio
codec_time_base=1/11025
codec_tag_string=[0][0][0][0]
codec_tag=0x0000
sample_fmt=fltp
sample_rate=11025
channels=1
channel_layout=mono
bits_per_sample=0
id=N/A
r_frame_rate=0/0
avg_frame_rate=0/0
time_base=1/14112000
start_pts=1414400
start_time=0.100227
duration_ts=10321920
duration=0.731429
bit_rate=64000
max_bit_rate=N/A
bits_per_raw_sample=N/A
nb_frames=N/A
nb_read_frames=N/A
nb_read_packets=N/A
DISPOSITION:default=0
DISPOSITION:dub=0
DISPOSITION:original=0
DISPOSITION:comment=0
DISPOSITION:lyrics=0
DISPOSITION:karaoke=0
DISPOSITION:forced=0
DISPOSITION:hearing_impaired=0
DISPOSITION:visual_impaired=0
DISPOSITION:clean_effects=0
DISPOSITION:attached_pic=0
DISPOSITION:timed_thumbnails=0
TAG:encoder=LAME3.100
[/STREAM]
[STREAM]
index=0
codec_name=mp3
codec_long_name=MP3 (MPEG audio layer 3)
profile=unknown
codec_type=audio
codec_time_base=1/44100
codec_tag_string=[0][0][0][0]
codec_tag=0x0000
sample_fmt=fltp
sample_rate=44100
channels=1
channel_layout=mono
bits_per_sample=0
id=N/A
r_frame_rate=0/0
avg_frame_rate=0/0
time_base=1/14112000
start_pts=353600
start_time=0.025057
duration_ts=215285760
duration=15.255510
bit_rate=96000
max_bit_rate=N/A
bits_per_raw_sample=N/A
nb_frames=N/A
nb_read_frames=N/A
nb_read_packets=N/A
DISPOSITION:default=0
DISPOSITION:dub=0
DISPOSITION:original=0
DISPOSITION:comment=0
DISPOSITION:lyrics=0
DISPOSITION:karaoke=0
DISPOSITION:forced=0
DISPOSITION:hearing_impaired=0
DISPOSITION:visual_impaired=0
DISPOSITION:clean_effects=0
DISPOSITION:attached_pic=0
DISPOSITION:timed_thumbnails=0
TAG:encoder=LAME3.100
[/STREAM]
[STREAM]
index=0
codec_name=mp3
codec_long_name=MP3 (MPEG audio layer 3)
profile=unknown
codec_type=audio
codec_time_base=1/11025
codec_tag_string=[0][0][0][0]
codec_tag=0x0000
sample_fmt=fltp
sample_rate=11025
channels=1
channel_layout=mono
bits_per_sample=0
id=N/A
r_frame_rate=0/0
avg_frame_rate=0/0
time_base=1/14112000
start_pts=1414400
start_time=0.100227
duration_ts=10321920
duration=0.731429
bit_rate=64000
max_bit_rate=N/A
bits_per_raw_sample=N/A
nb_frames=N/A
nb_read_frames=N/A
nb_read_packets=N/A
DISPOSITION:default=0
DISPOSITION:dub=0
DISPOSITION:original=0
DISPOSITION:comment=0
DISPOSITION:lyrics=0
DISPOSITION:karaoke=0
DISPOSITION:forced=0
DISPOSITION:hearing_impaired=0
DISPOSITION:visual_impaired=0
DISPOSITION:clean_effects=0
DISPOSITION:attached_pic=0
DISPOSITION:timed_thumbnails=0
TAG:encoder=LAME3.100
[/STREAM]
[STREAM]
index=0
codec_name=mp3
codec_long_name=MP3 (MPEG audio layer 3)
profile=unknown
codec_type=audio
codec_time_base=1/44100
codec_tag_string=[0][0][0][0]
codec_tag=0x0000
sample_fmt=fltp
sample_rate=44100
channels=1
channel_layout=mono
bits_per_sample=0
id=N/A
r_frame_rate=0/0
avg_frame_rate=0/0
time_base=1/14112000
start_pts=353600
start_time=0.025057
duration_ts=13639680
duration=0.966531
bit_rate=96000
max_bit_rate=N/A
bits_per_raw_sample=N/A
nb_frames=N/A
nb_read_frames=N/A
nb_read_packets=N/A
DISPOSITION:default=0
DISPOSITION:dub=0
DISPOSITION:original=0
DISPOSITION:comment=0
DISPOSITION:lyrics=0
DISPOSITION:karaoke=0
DISPOSITION:forced=0
DISPOSITION:hearing_impaired=0
DISPOSITION:visual_impaired=0
DISPOSITION:clean_effects=0
DISPOSITION:attached_pic=0
DISPOSITION:timed_thumbnails=0
TAG:encoder=LAME3.100
[/STREAM]
[STREAM]
index=0
codec_name=mp3
codec_long_name=MP3 (MPEG audio layer 3)
profile=unknown
codec_type=audio
codec_time_base=1/44100
codec_tag_string=[0][0][0][0]
codec_tag=0x0000
sample_fmt=fltp
sample_rate=44100
channels=1
channel_layout=mono
bits_per_sample=0
id=N/A
r_frame_rate=0/0
avg_frame_rate=0/0
time_base=1/14112000
start_pts=353600
start_time=0.025057
duration_ts=40550400
duration=2.873469
bit_rate=96000
max_bit_rate=N/A
bits_per_raw_sample=N/A
nb_frames=N/A
nb_read_frames=N/A
nb_read_packets=N/A
DISPOSITION:default=0
DISPOSITION:dub=0
DISPOSITION:original=0
DISPOSITION:comment=0
DISPOSITION:lyrics=0
DISPOSITION:karaoke=0
DISPOSITION:forced=0
DISPOSITION:hearing_impaired=0
DISPOSITION:visual_impaired=0
DISPOSITION:clean_effects=0
DISPOSITION:attached_pic=0
DISPOSITION:timed_thumbnails=0
TAG:encoder=LAME3.100
[/STREAM]
[STREAM]
index=0
codec_name=mp3
codec_long_name=MP3 (MPEG audio layer 3)
profile=unknown
codec_type=audio
codec_time_base=1/44100
codec_tag_string=[0][0][0][0]
codec_tag=0x0000
sample_fmt=fltp
sample_rate=44100
channels=1
channel_layout=mono
bits_per_sample=0
id=N/A
r_frame_rate=0/0
avg_frame_rate=0/0
time_base=1/14112000
start_pts=353600
start_time=0.025057
duration_ts=12165120
duration=0.862041
bit_rate=96000
max_bit_rate=N/A
bits_per_raw_sample=N/A
nb_frames=N/A
nb_read_frames=N/A
nb_read_packets=N/A
DISPOSITION:default=0
DISPOSITION:dub=0
DISPOSITION:original=0
DISPOSITION:comment=0
DISPOSITION:lyrics=0
DISPOSITION:karaoke=0
DISPOSITION:forced=0
DISPOSITION:hearing_impaired=0
DISPOSITION:visual_impaired=0
DISPOSITION:clean_effects=0
DISPOSITION:attached_pic=0
DISPOSITION:timed_thumbnails=0
TAG:encoder=LAME3.100
[/STREAM]
[STREAM]
index=0
codec_name=mp3
codec_long_name=MP3 (MPEG audio layer 3)
profile=unknown
codec_type=audio
codec_time_base=1/44100
codec_tag_string=[0][0][0][0]
codec_tag=0x0000
sample_fmt=fltp
sample_rate=44100
channels=1
channel_layout=mono
bits_per_sample=0
id=N/A
r_frame_rate=0/0
avg_frame_rate=0/0
time_base=1/14112000
start_pts=353600
start_time=0.025057
duration_ts=101376000
duration=7.183673
bit_rate=96000
max_bit_rate=N/A
bits_per_raw_sample=N/A
nb_frames=N/A
nb_read_frames=N/A
nb_read_packets=N/A
DISPOSITION:default=0
DISPOSITION:dub=0
DISPOSITION:original=0
DISPOSITION:comment=0
DISPOSITION:lyrics=0
DISPOSITION:karaoke=0
DISPOSITION:forced=0
DISPOSITION:hearing_impaired=0
DISPOSITION:visual_impaired=0
DISPOSITION:clean_effects=0
DISPOSITION:attached_pic=0
DISPOSITION:timed_thumbnails=0
TAG:encoder=LAME3.100
[/STREAM]
[STREAM]
index=0
codec_name=mp3
codec_long_name=MP3 (MPEG audio layer 3)
profile=unknown
codec_type=audio
codec_time_base=1/44100
codec_tag_string=[0][0][0][0]
codec_tag=0x0000
sample_fmt=fltp
sample_rate=44100
channels=1
channel_layout=mono
bits_per_sample=0
id=N/A
r_frame_rate=0/0
avg_frame_rate=0/0
time_base=1/14112000
start_pts=353600
start_time=0.025057
duration_ts=23224320
duration=1.645714
bit_rate=96000
max_bit_rate=N/A
bits_per_raw_sample=N/A
nb_frames=N/A
nb_read_frames=N/A
nb_read_packets=N/A
DISPOSITION:default=0
DISPOSITION:dub=0
DISPOSITION:original=0
DISPOSITION:comment=0
DISPOSITION:lyrics=0
DISPOSITION:karaoke=0
DISPOSITION:forced=0
DISPOSITION:hearing_impaired=0
DISPOSITION:visual_impaired=0
DISPOSITION:clean_effects=0
DISPOSITION:attached_pic=0
DISPOSITION:timed_thumbnails=0
TAG:encoder=LAME3.100
[/STREAM]
[STREAM]
index=0
codec_name=mp3
codec_long_name=MP3 (MPEG audio layer 3)
profile=unknown
codec_type=audio
codec_time_base=1/44100
codec_tag_string=[0][0][0][0]
codec_tag=0x0000
sample_fmt=fltp
sample_rate=44100
channels=1
channel_layout=mono
bits_per_sample=0
id=N/A
r_frame_rate=0/0
avg_frame_rate=0/0
time_base=1/14112000
start_pts=353600
start_time=0.025057
duration_ts=19169280
duration=1.358367
bit_rate=96000
max_bit_rate=N/A
bits_per_raw_sample=N/A
nb_frames=N/A
nb_read_frames=N/A
nb_read_packets=N/A
DISPOSITION:default=0
DISPOSITION:dub=0
DISPOSITION:original=0
DISPOSITION:comment=0
DISPOSITION:lyrics=0
DISPOSITION:karaoke=0
DISPOSITION:forced=0
DISPOSITION:hearing_impaired=0
DISPOSITION:visual_impaired=0
DISPOSITION:clean_effects=0
DISPOSITION:attached_pic=0
DISPOSITION:timed_thumbnails=0
TAG:encoder=LAME3.100
[/STREAM]
[STREAM]
index=0
codec_name=mp3
codec_long_name=MP3 (MPEG audio layer 3)
profile=unknown
codec_type=audio
codec_time_base=1/44100
codec_tag_string=[0][0][0][0]
codec_tag=0x0000
sample_fmt=fltp
sample_rate=44100
channels=1
channel_layout=mono
bits_per_sample=0
id=N/A
r_frame_rate=0/0
avg_frame_rate=0/0
time_base=1/14112000
start_pts=353600
start_time=0.025057
duration_ts=426147840
duration=30.197551
bit_rate=96000
max_bit_rate=N/A
bits_per_raw_sample=N/A
nb_frames=N/A
nb_read_frames=N/A
nb_read_packets=N/A
DISPOSITION:default=0
DISPOSITION:dub=0
DISPOSITION:original=0
DISPOSITION:comment=0
DISPOSITION:lyrics=0
DISPOSITION:karaoke=0
DISPOSITION:forced=0
DISPOSITION:hearing_impaired=0
DISPOSITION:visual_impaired=0
DISPOSITION:clean_effects=0
DISPOSITION:attached_pic=0
DISPOSITION:timed_thumbnails=0
TAG:encoder=LAME3.100
[/STREAM]
[STREAM]
index=0
codec_name=mp3
codec_long_name=MP3 (MPEG audio layer 3)
profile=unknown
codec_type=audio
codec_time_base=1/44100
codec_tag_string=[0][0][0][0]
codec_tag=0x0000
sample_fmt=fltp
sample_rate=44100
channels=1
channel_layout=mono
bits_per_sample=0
id=N/A
r_frame_rate=0/0
avg_frame_rate=0/0
time_base=1/14112000
start_pts=353600
start_time=0.025057
duration_ts=40181760
duration=2.847347
bit_rate=96000
max_bit_rate=N/A
bits_per_raw_sample=N/A
nb_frames=N/A
nb_read_frames=N/A
nb_read_packets=N/A
DISPOSITION:default=0
DISPOSITION:dub=0
DISPOSITION:original=0
DISPOSITION:comment=0
DISPOSITION:lyrics=0
DISPOSITION:karaoke=0
DISPOSITION:forced=0
DISPOSITION:hearing_impaired=0
DISPOSITION:visual_impaired=0
DISPOSITION:clean_effects=0
DISPOSITION:attached_pic=0
DISPOSITION:timed_thumbnails=0
TAG:encoder=LAME3.100
[/STREAM]
[STREAM]
index=0
codec_name=mp3
codec_long_name=MP3 (MPEG audio layer 3)
profile=unknown
codec_type=audio
codec_time_base=1/44100
codec_tag_string=[0][0][0][0]
codec_tag=0x0000
sample_fmt=fltp
sample_rate=44100
channels=1
channel_layout=mono
bits_per_sample=0
id=N/A
r_frame_rate=0/0
avg_frame_rate=0/0
time_base=1/14112000
start_pts=353600
start_time=0.025057
duration_ts=28016640
duration=1.985306
bit_rate=96000
max_bit_rate=N/A
bits_per_raw_sample=N/A
nb_frames=N/A
nb_read_frames=N/A
nb_read_packets=N/A
DISPOSITION:default=0
DISPOSITION:dub=0
DISPOSITION:original=0
DISPOSITION:comment=0
DISPOSITION:lyrics=0
DISPOSITION:karaoke=0
DISPOSITION:forced=0
DISPOSITION:hearing_impaired=0
DISPOSITION:visual_impaired=0
DISPOSITION:clean_effects=0
DISPOSITION:attached_pic=0
DISPOSITION:timed_thumbnails=0
TAG:encoder=LAME3.100
[/STREAM]
[STREAM]
index=0
codec_name=mp3
codec_long_name=MP3 (MPEG audio layer 3)
profile=unknown
codec_type=audio
codec_time_base=1/44100
codec_tag_string=[0][0][0][0]
codec_tag=0x0000
sample_fmt=fltp
sample_rate=44100
channels=1
channel_layout=mono
bits_per_sample=0
id=N/A
r_frame_rate=0/0
avg_frame_rate=0/0
time_base=1/14112000
start_pts=353600
start_time=0.025057
duration_ts=53821440
duration=3.813878
bit_rate=96000
max_bit_rate=N/A
bits_per_raw_sample=N/A
nb_frames=N/A
nb_read_frames=N/A
nb_read_packets=N/A
DISPOSITION:default=0
DISPOSITION:dub=0
DISPOSITION:original=0
DISPOSITION:comment=0
DISPOSITION:lyrics=0
DISPOSITION:karaoke=0
DISPOSITION:forced=0
DISPOSITION:hearing_impaired=0
DISPOSITION:visual_impaired=0
DISPOSITION:clean_effects=0
DISPOSITION:attached_pic=0
DISPOSITION:timed_thumbnails=0
TAG:encoder=LAME3.100
[/STREAM]
[STREAM]
index=0
codec_name=mp3
codec_long_name=MP3 (MPEG audio layer 3)
profile=unknown
codec_type=audio
codec_time_base=1/44100
codec_tag_string=[0][0][0][0]
codec_tag=0x0000
sample_fmt=fltp
sample_rate=44100
channels=1
channel_layout=mono
bits_per_sample=0
id=N/A
r_frame_rate=0/0
avg_frame_rate=0/0
time_base=1/14112000
start_pts=353600
start_time=0.025057
duration_ts=16220160
duration=1.149388
bit_rate=96000
max_bit_rate=N/A
bits_per_raw_sample=N/A
nb_frames=N/A
nb_read_frames=N/A
nb_read_packets=N/A
DISPOSITION:default=0
DISPOSITION:dub=0
DISPOSITION:original=0
DISPOSITION:comment=0
DISPOSITION:lyrics=0
DISPOSITION:karaoke=0
DISPOSITION:forced=0
DISPOSITION:hearing_impaired=0
DISPOSITION:visual_impaired=0
DISPOSITION:clean_effects=0
DISPOSITION:attached_pic=0
DISPOSITION:timed_thumbnails=0
TAG:encoder=LAME3.100
[/STREAM]
[STREAM]
index=0
codec_name=mp3
codec_long_name=MP3 (MPEG audio layer 3)
profile=unknown
codec_type=audio
codec_time_base=1/22050
codec_tag_string=[0][0][0][0]
codec_tag=0x0000
sample_fmt=fltp
sample_rate=22050
channels=1
channel_layout=mono
bits_per_sample=0
id=N/A
r_frame_rate=0/0
avg_frame_rate=0/0
time_base=1/14112000
start_pts=707200
start_time=0.050113
duration_ts=75571200
duration=5.355102
bit_rate=96000
max_bit_rate=N/A
bits_per_raw_sample=N/A
nb_frames=N/A
nb_read_frames=N/A
nb_read_packets=N/A
DISPOSITION:default=0
DISPOSITION:dub=0
DISPOSITION:original=0
DISPOSITION:comment=0
DISPOSITION:lyrics=0
DISPOSITION:karaoke=0
DISPOSITION:forced=0
DISPOSITION:hearing_impaired=0
DISPOSITION:visual_impaired=0
DISPOSITION:clean_effects=0
DISPOSITION:attached_pic=0
DISPOSITION:timed_thumbnails=0
TAG:encoder=LAME3.100
[/STREAM]
[STREAM]
index=0
codec_name=mp3
codec_long_name=MP3 (MPEG audio layer 3)
profile=unknown
codec_type=audio
codec_time_base=1/44100
codec_tag_string=[0][0][0][0]
codec_tag=0x0000
sample_fmt=fltp
sample_rate=44100
channels=1
channel_layout=mono
bits_per_sample=0
id=N/A
r_frame_rate=0/0
avg_frame_rate=0/0
time_base=1/14112000
start_pts=353600
start_time=0.025057
duration_ts=31703040
duration=2.246531
bit_rate=96000
max_bit_rate=N/A
bits_per_raw_sample=N/A
nb_frames=N/A
nb_read_frames=N/A
nb_read_packets=N/A
DISPOSITION:default=0
DISPOSITION:dub=0
DISPOSITION:original=0
DISPOSITION:comment=0
DISPOSITION:lyrics=0
DISPOSITION:karaoke=0
DISPOSITION:forced=0
DISPOSITION:hearing_impaired=0
DISPOSITION:visual_impaired=0
DISPOSITION:clean_effects=0
DISPOSITION:attached_pic=0
DISPOSITION:timed_thumbnails=0
TAG:encoder=LAME3.100
[/STREAM]
[STREAM]
index=0
codec_name=mp3
codec_long_name=MP3 (MPEG audio layer 3)
profile=unknown
codec_type=audio
codec_time_base=1/44100
codec_tag_string=[0][0][0][0]
codec_tag=0x0000
sample_fmt=fltp
sample_rate=44100
channels=1
channel_layout=mono
bits_per_sample=0
id=N/A
r_frame_rate=0/0
avg_frame_rate=0/0
time_base=1/14112000
start_pts=353600
start_time=0.025057
duration_ts=737280
duration=0.052245
bit_rate=96000
max_bit_rate=N/A
bits_per_raw_sample=N/A
nb_frames=N/A
nb_read_frames=N/A
nb_read_packets=N/A
DISPOSITION:default=0
DISPOSITION:dub=0
DISPOSITION:original=0
DISPOSITION:comment=0
DISPOSITION:lyrics=0
DISPOSITION:karaoke=0
DISPOSITION:forced=0
DISPOSITION:hearing_impaired=0
DISPOSITION:visual_impaired=0
DISPOSITION:clean_effects=0
DISPOSITION:attached_pic=0
DISPOSITION:timed_thumbnails=0
TAG:encoder=LAME3.100
[/STREAM]
[STREAM]
index=0
codec_name=mp3
codec_long_name=MP3 (MPEG audio layer 3)
profile=unknown
codec_type=audio
codec_time_base=1/44100
codec_tag_string=[0][0][0][0]
codec_tag=0x0000
sample_fmt=fltp
sample_rate=44100
channels=1
channel_layout=mono
bits_per_sample=0
id=N/A
r_frame_rate=0/0
avg_frame_rate=0/0
time_base=1/14112000
start_pts=353600
start_time=0.025057
duration_ts=207175680
duration=14.680816
bit_rate=96000
max_bit_rate=N/A
bits_per_raw_sample=N/A
nb_frames=N/A
nb_read_frames=N/A
nb_read_packets=N/A
DISPOSITION:default=0
DISPOSITION:dub=0
DISPOSITION:original=0
DISPOSITION:comment=0
DISPOSITION:lyrics=0
DISPOSITION:karaoke=0
DISPOSITION:forced=0
DISPOSITION:hearing_impaired=0
DISPOSITION:visual_impaired=0
DISPOSITION:clean_effects=0
DISPOSITION:attached_pic=0
DISPOSITION:timed_thumbnails=0
TAG:encoder=LAME3.100
[/STREAM]
[STREAM]
index=0
codec_name=mp3
codec_long_name=MP3 (MPEG audio layer 3)
profile=unknown
codec_type=audio
codec_time_base=1/44100
codec_tag_string=[0][0][0][0]
codec_tag=0x0000
sample_fmt=fltp
sample_rate=44100
channels=1
channel_layout=mono
bits_per_sample=0
id=N/A
r_frame_rate=0/0
avg_frame_rate=0/0
time_base=1/14112000
start_pts=353600
start_time=0.025057
duration_ts=21749760
duration=1.541224
bit_rate=96000
max_bit_rate=N/A
bits_per_raw_sample=N/A
nb_frames=N/A
nb_read_frames=N/A
nb_read_packets=N/A
DISPOSITION:default=0
DISPOSITION:dub=0
DISPOSITION:original=0
DISPOSITION:comment=0
DISPOSITION:lyrics=0
DISPOSITION:karaoke=0
DISPOSITION:forced=0
DISPOSITION:hearing_impaired=0
DISPOSITION:visual_impaired=0
DISPOSITION:clean_effects=0
DISPOSITION:attached_pic=0
DISPOSITION:timed_thumbnails=0
TAG:encoder=LAME3.100
[/STREAM]
[STREAM]
index=0
codec_name=mp3
codec_long_name=MP3 (MPEG audio layer 3)
profile=unknown
codec_type=audio
codec_time_base=1/44100
codec_tag_string=[0][0][0][0]
codec_tag=0x0000
sample_fmt=fltp
sample_rate=44100
channels=1
channel_layout=mono
bits_per_sample=0
id=N/A
r_frame_rate=0/0
avg_frame_rate=0/0
time_base=1/14112000
start_pts=353600
start_time=0.025057
duration_ts=17326080
duration=1.227755
bit_rate=96000
max_bit_rate=N/A
bits_per_raw_sample=N/A
nb_frames=N/A
nb_read_frames=N/A
nb_read_packets=N/A
DISPOSITION:default=0
DISPOSITION:dub=0
DISPOSITION:original=0
DISPOSITION:comment=0
DISPOSITION:lyrics=0
DISPOSITION:karaoke=0
DISPOSITION:forced=0
DISPOSITION:hearing_impaired=0
DISPOSITION:visual_impaired=0
DISPOSITION:clean_effects=0
DISPOSITION:attached_pic=0
DISPOSITION:timed_thumbnails=0
TAG:encoder=LAME3.100
[/STREAM]
[STREAM]
index=0
codec_name=mp3
codec_long_name=MP3 (MPEG audio layer 3)
profile=unknown
codec_type=audio
codec_time_base=1/44100
codec_tag_string=[0][0][0][0]
codec_tag=0x0000
sample_fmt=fltp
sample_rate=44100
channels=1
channel_layout=mono
bits_per_sample=0
id=N/A
r_frame_rate=0/0
avg_frame_rate=0/0
time_base=1/14112000
start_pts=353600
start_time=0.025057
duration_ts=17326080
duration=1.227755
bit_rate=96000
max_bit_rate=N/A
bits_per_raw_sample=N/A
nb_frames=N/A
nb_read_frames=N/A
nb_read_packets=N/A
DISPOSITION:default=0
DISPOSITION:dub=0
DISPOSITION:original=0
DISPOSITION:comment=0
DISPOSITION:lyrics=0
DISPOSITION:karaoke=0
DISPOSITION:forced=0
DISPOSITION:hearing_impaired=0
DISPOSITION:visual_impaired=0
DISPOSITION:clean_effects=0
DISPOSITION:attached_pic=0
DISPOSITION:timed_thumbnails=0
TAG:encoder=LAME3.100
[/STREAM]
[STREAM]
index=0
codec_name=mp3
codec_long_name=MP3 (MPEG audio layer 3)
profile=unknown
codec_type=audio
codec_time_base=1/44100
codec_tag_string=[0][0][0][0]
codec_tag=0x0000
sample_fmt=fltp
sample_rate=44100
channels=1
channel_layout=mono
bits_per_sample=0
id=N/A
r_frame_rate=0/0
avg_frame_rate=0/0
time_base=1/14112000
start_pts=353600
start_time=0.025057
duration_ts=144506880
duration=10.240000
bit_rate=96000
max_bit_rate=N/A
bits_per_raw_sample=N/A
nb_frames=N/A
nb_read_frames=N/A
nb_read_packets=N/A
DISPOSITION:default=0
DISPOSITION:dub=0
DISPOSITION:original=0
DISPOSITION:comment=0
DISPOSITION:lyrics=0
DISPOSITION:karaoke=0
DISPOSITION:forced=0
DISPOSITION:hearing_impaired=0
DISPOSITION:visual_impaired=0
DISPOSITION:clean_effects=0
DISPOSITION:attached_pic=0
DISPOSITION:timed_thumbnails=0
TAG:encoder=LAME3.100
[/STREAM]
[STREAM]
index=0
codec_name=mp3
codec_long_name=MP3 (MPEG audio layer 3)
profile=unknown
codec_type=audio
codec_time_base=1/44100
codec_tag_string=[0][0][0][0]
codec_tag=0x0000
sample_fmt=fltp
sample_rate=44100
channels=1
channel_layout=mono
bits_per_sample=0
id=N/A
r_frame_rate=0/0
avg_frame_rate=0/0
time_base=1/14112000
start_pts=353600
start_time=0.025057
duration_ts=39075840
duration=2.768980
bit_rate=96000
max_bit_rate=N/A
bits_per_raw_sample=N/A
nb_frames=N/A
nb_read_frames=N/A
nb_read_packets=N/A
DISPOSITION:default=0
DISPOSITION:dub=0
DISPOSITION:original=0
DISPOSITION:comment=0
DISPOSITION:lyrics=0
DISPOSITION:karaoke=0
DISPOSITION:forced=0
DISPOSITION:hearing_impaired=0
DISPOSITION:visual_impaired=0
DISPOSITION:clean_effects=0
DISPOSITION:attached_pic=0
DISPOSITION:timed_thumbnails=0
TAG:encoder=LAME3.100
[/STREAM]
[STREAM]
index=0
codec_name=mp3
codec_long_name=MP3 (MPEG audio layer 3)
profile=unknown
codec_type=audio
codec_time_base=1/44100
codec_tag_string=[0][0][0][0]
codec_tag=0x0000
sample_fmt=fltp
sample_rate=44100
channels=1
channel_layout=mono
bits_per_sample=0
id=N/A
r_frame_rate=0/0
avg_frame_rate=0/0
time_base=1/14112000
start_pts=353600
start_time=0.025057
duration_ts=144506880
duration=10.240000
bit_rate=96000
max_bit_rate=N/A
bits_per_raw_sample=N/A
nb_frames=N/A
nb_read_frames=N/A
nb_read_packets=N/A
DISPOSITION:default=0
DISPOSITION:dub=0
DISPOSITION:original=0
DISPOSITION:comment=0
DISPOSITION:lyrics=0
DISPOSITION:karaoke=0
DISPOSITION:forced=0
DISPOSITION:hearing_impaired=0
DISPOSITION:visual_impaired=0
DISPOSITION:clean_effects=0
DISPOSITION:attached_pic=0
DISPOSITION:timed_thumbnails=0
TAG:encoder=LAME3.100
[/STREAM]
[STREAM]
index=0
codec_name=mp3
codec_long_name=MP3 (MPEG audio layer 3)
profile=unknown
codec_type=audio
codec_time_base=1/44100
codec_tag_string=[0][0][0][0]
codec_tag=0x0000
sample_fmt=fltp
sample_rate=44100
channels=1
channel_layout=mono
bits_per_sample=0
id=N/A
r_frame_rate=0/0
avg_frame_rate=0/0
time_base=1/14112000
start_pts=353600
start_time=0.025057
duration_ts=11059200
duration=0.783673
bit_rate=96000
max_bit_rate=N/A
bits_per_raw_sample=N/A
nb_frames=N/A
nb_read_frames=N/A
nb_read_packets=N/A
DISPOSITION:default=0
DISPOSITION:dub=0
DISPOSITION:original=0
DISPOSITION:comment=0
DISPOSITION:lyrics=0
DISPOSITION:karaoke=0
DISPOSITION:forced=0
DISPOSITION:hearing_impaired=0
DISPOSITION:visual_impaired=0
DISPOSITION:clean_effects=0
DISPOSITION:attached_pic=0
DISPOSITION:timed_thumbnails=0
TAG:encoder=LAME3.100
[/STREAM]
[STREAM]
index=0
codec_name=mp3
codec_long_name=MP3 (MPEG audio layer 3)
profile=unknown
codec_type=audio
codec_time_base=1/44100
codec_tag_string=[0][0][0][0]
codec_tag=0x0000
sample_fmt=fltp
sample_rate=44100
channels=1
channel_layout=mono
bits_per_sample=0
id=N/A
r_frame_rate=0/0
avg_frame_rate=0/0
time_base=1/14112000
start_pts=353600
start_time=0.025057
duration_ts=176947200
duration=12.538776
bit_rate=96000
max_bit_rate=N/A
bits_per_raw_sample=N/A
nb_frames=N/A
nb_read_frames=N/A
nb_read_packets=N/A
DISPOSITION:default=0
DISPOSITION:dub=0
DISPOSITION:original=0
DISPOSITION:comment=0
DISPOSITION:lyrics=0
DISPOSITION:karaoke=0
DISPOSITION:forced=0
DISPOSITION:hearing_impaired=0
DISPOSITION:visual_impaired=0
DISPOSITION:clean_effects=0
DISPOSITION:attached_pic=0
DISPOSITION:timed_thumbnails=0
TAG:encoder=LAME3.100
[/STREAM]
[STREAM]
index=0
codec_name=mp3
codec_long_name=MP3 (MPEG audio layer 3)
profile=unknown
codec_type=audio
codec_time_base=1/44100
codec_tag_string=[0][0][0][0]
codec_tag=0x0000
sample_fmt=fltp
sample_rate=44100
channels=1
channel_layout=mono
bits_per_sample=0
id=N/A
r_frame_rate=0/0
avg_frame_rate=0/0
time_base=1/14112000
start_pts=353600
start_time=0.025057
duration_ts=167362560
duration=11.859592
bit_rate=96000
max_bit_rate=N/A
bits_per_raw_sample=N/A
nb_frames=N/A
nb_read_frames=N/A
nb_read_packets=N/A
DISPOSITION:default=0
DISPOSITION:dub=0
DISPOSITION:original=0
DISPOSITION:comment=0
DISPOSITION:lyrics=0
DISPOSITION:karaoke=0
DISPOSITION:forced=0
DISPOSITION:hearing_impaired=0
DISPOSITION:visual_impaired=0
DISPOSITION:clean_effects=0
DISPOSITION:attached_pic=0
DISPOSITION:timed_thumbnails=0
TAG:encoder=LAME3.100
[/STREAM]
[STREAM]
index=0
codec_name=mp3
codec_long_name=MP3 (MPEG audio layer 3)
profile=unknown
codec_type=audio
codec_time_base=1/44100
codec_tag_string=[0][0][0][0]
codec_tag=0x0000
sample_fmt=fltp
sample_rate=44100
channels=1
channel_layout=mono
bits_per_sample=0
id=N/A
r_frame_rate=0/0
avg_frame_rate=0/0
time_base=1/14112000
start_pts=353600
start_time=0.025057
duration_ts=2949120
duration=0.208980
bit_rate=96000
max_bit_rate=N/A
bits_per_raw_sample=N/A
nb_frames=N/A
nb_read_frames=N/A
nb_read_packets=N/A
DISPOSITION:default=0
DISPOSITION:dub=0
DISPOSITION:original=0
DISPOSITION:comment=0
DISPOSITION:lyrics=0
DISPOSITION:karaoke=0
DISPOSITION:forced=0
DISPOSITION:hearing_impaired=0
DISPOSITION:visual_impaired=0
DISPOSITION:clean_effects=0
DISPOSITION:attached_pic=0
DISPOSITION:timed_thumbnails=0
TAG:encoder=LAME3.100
[/STREAM]
[STREAM]
index=0
codec_name=mp3
codec_long_name=MP3 (MPEG audio layer 3)
profile=unknown
codec_type=audio
codec_time_base=1/22050
codec_tag_string=[0][0][0][0]
codec_tag=0x0000
sample_fmt=fltp
sample_rate=22050
channels=1
channel_layout=mono
bits_per_sample=0
id=N/A
r_frame_rate=0/0
avg_frame_rate=0/0
time_base=1/14112000
start_pts=707200
start_time=0.050113
duration_ts=69304320
duration=4.911020
bit_rate=96000
max_bit_rate=N/A
bits_per_raw_sample=N/A
nb_frames=N/A
nb_read_frames=N/A
nb_read_packets=N/A
DISPOSITION:default=0
DISPOSITION:dub=0
DISPOSITION:original=0
DISPOSITION:comment=0
DISPOSITION:lyrics=0
DISPOSITION:karaoke=0
DISPOSITION:forced=0
DISPOSITION:hearing_impaired=0
DISPOSITION:visual_impaired=0
DISPOSITION:clean_effects=0
DISPOSITION:attached_pic=0
DISPOSITION:timed_thumbnails=0
TAG:encoder=LAME3.100
[/STREAM]
[STREAM]
index=0
codec_name=mp3
codec_long_name=MP3 (MPEG audio layer 3)
profile=unknown
codec_type=audio
codec_time_base=1/44100
codec_tag_string=[0][0][0][0]
codec_tag=0x0000
sample_fmt=fltp
sample_rate=44100
channels=1
channel_layout=mono
bits_per_sample=0
id=N/A
r_frame_rate=0/0
avg_frame_rate=0/0
time_base=1/14112000
start_pts=353600
start_time=0.025057
duration_ts=140451840
duration=9.952653
bit_rate=96000
max_bit_rate=N/A
bits_per_raw_sample=N/A
nb_frames=N/A
nb_read_frames=N/A
nb_read_packets=N/A
DISPOSITION:default=0
DISPOSITION:dub=0
DISPOSITION:original=0
DISPOSITION:comment=0
DISPOSITION:lyrics=0
DISPOSITION:karaoke=0
DISPOSITION:forced=0
DISPOSITION:hearing_impaired=0
DISPOSITION:visual_impaired=0
DISPOSITION:clean_effects=0
DISPOSITION:attached_pic=0
DISPOSITION:timed_thumbnails=0
TAG:encoder=LAME3.100
[/STREAM]
[STREAM]
index=0
codec_name=mp3
codec_long_name=MP3 (MPEG audio layer 3)
profile=unknown
codec_type=audio
codec_time_base=1/44100
codec_tag_string=[0][0][0][0]
codec_tag=0x0000
sample_fmt=fltp
sample_rate=44100
channels=1
channel_layout=mono
bits_per_sample=0
id=N/A
r_frame_rate=0/0
avg_frame_rate=0/0
time_base=1/14112000
start_pts=353600
start_time=0.025057
duration_ts=97689600
duration=6.922449
bit_rate=96000
max_bit_rate=N/A
bits_per_raw_sample=N/A
nb_frames=N/A
nb_read_frames=N/A
nb_read_packets=N/A
DISPOSITION:default=0
DISPOSITION:dub=0
DISPOSITION:original=0
DISPOSITION:comment=0
DISPOSITION:lyrics=0
DISPOSITION:karaoke=0
DISPOSITION:forced=0
DISPOSITION:hearing_impaired=0
DISPOSITION:visual_impaired=0
DISPOSITION:clean_effects=0
DISPOSITION:attached_pic=0
DISPOSITION:timed_thumbnails=0
TAG:encoder=LAME3.100
[/STREAM]
[STREAM]
index=0
codec_name=mp3
codec_long_name=MP3 (MPEG audio layer 3)
profile=unknown
codec_type=audio
codec_time_base=1/44100
codec_tag_string=[0][0][0][0]
codec_tag=0x0000
sample_fmt=fltp
sample_rate=44100
channels=1
channel_layout=mono
bits_per_sample=0
id=N/A
r_frame_rate=0/0
avg_frame_rate=0/0
time_base=1/14112000
start_pts=353600
start_time=0.025057
duration_ts=141189120
duration=10.004898
bit_rate=96000
max_bit_rate=N/A
bits_per_raw_sample=N/A
nb_frames=N/A
nb_read_frames=N/A
nb_read_packets=N/A
DISPOSITION:default=0
DISPOSITION:dub=0
DISPOSITION:original=0
DISPOSITION:comment=0
DISPOSITION:lyrics=0
DISPOSITION:karaoke=0
DISPOSITION:forced=0
DISPOSITION:hearing_impaired=0
DISPOSITION:visual_impaired=0
DISPOSITION:clean_effects=0
DISPOSITION:attached_pic=0
DISPOSITION:timed_thumbnails=0
TAG:encoder=LAME3.100
[/STREAM]
[STREAM]
index=0
codec_name=mp3
codec_long_name=MP3 (MPEG audio layer 3)
profile=unknown
codec_type=audio
codec_time_base=1/48000
codec_tag_string=[0][0][0][0]
codec_tag=0x0000
sample_fmt=fltp
sample_rate=48000
channels=1
channel_layout=mono
bits_per_sample=0
id=N/A
r_frame_rate=0/0
avg_frame_rate=0/0
time_base=1/14112000
start_pts=324870
start_time=0.023021
duration_ts=88397568
duration=6.264000
bit_rate=96000
max_bit_rate=N/A
bits_per_raw_sample=N/A
nb_frames=N/A
nb_read_frames=N/A
nb_read_packets=N/A
DISPOSITION:default=0
DISPOSITION:dub=0
DISPOSITION:original=0
DISPOSITION:comment=0
DISPOSITION:lyrics=0
DISPOSITION:karaoke=0
DISPOSITION:forced=0
DISPOSITION:hearing_impaired=0
DISPOSITION:visual_impaired=0
DISPOSITION:clean_effects=0
DISPOSITION:attached_pic=0
DISPOSITION:timed_thumbnails=0
TAG:encoder=LAME3.100
[/STREAM]
[STREAM]
index=0
codec_name=mp3
codec_long_name=MP3 (MPEG audio layer 3)
profile=unknown
codec_type=audio
codec_time_base=1/22050
codec_tag_string=[0][0][0][0]
codec_tag=0x0000
sample_fmt=fltp
sample_rate=22050
channels=1
channel_layout=mono
bits_per_sample=0
id=N/A
r_frame_rate=0/0
avg_frame_rate=0/0
time_base=1/14112000
start_pts=707200
start_time=0.050113
duration_ts=45342720
duration=3.213061
bit_rate=96000
max_bit_rate=N/A
bits_per_raw_sample=N/A
nb_frames=N/A
nb_read_frames=N/A
nb_read_packets=N/A
DISPOSITION:default=0
DISPOSITION:dub=0
DISPOSITION:original=0
DISPOSITION:comment=0
DISPOSITION:lyrics=0
DISPOSITION:karaoke=0
DISPOSITION:forced=0
DISPOSITION:hearing_impaired=0
DISPOSITION:visual_impaired=0
DISPOSITION:clean_effects=0
DISPOSITION:attached_pic=0
DISPOSITION:timed_thumbnails=0
TAG:encoder=LAME3.100
[/STREAM]
[STREAM]
index=0
codec_name=mp3
codec_long_name=MP3 (MPEG audio layer 3)
profile=unknown
codec_type=audio
codec_time_base=1/44100
codec_tag_string=[0][0][0][0]
codec_tag=0x0000
sample_fmt=fltp
sample_rate=44100
channels=1
channel_layout=mono
bits_per_sample=0
id=N/A
r_frame_rate=0/0
avg_frame_rate=0/0
time_base=1/14112000
start_pts=353600
start_time=0.025057
duration_ts=213073920
duration=15.098776
bit_rate=96000
max_bit_rate=N/A
bits_per_raw_sample=N/A
nb_frames=N/A
nb_read_frames=N/A
nb_read_packets=N/A
DISPOSITION:default=0
DISPOSITION:dub=0
DISPOSITION:original=0
DISPOSITION:comment=0
DISPOSITION:lyrics=0
DISPOSITION:karaoke=0
DISPOSITION:forced=0
DISPOSITION:hearing_impaired=0
DISPOSITION:visual_impaired=0
DISPOSITION:clean_effects=0
DISPOSITION:attached_pic=0
DISPOSITION:timed_thumbnails=0
TAG:encoder=LAME3.100
[/STREAM]
[STREAM]
index=0
codec_name=mp3
codec_long_name=MP3 (MPEG audio layer 3)
profile=unknown
codec_type=audio
codec_time_base=1/44100
codec_tag_string=[0][0][0][0]
codec_tag=0x0000
sample_fmt=fltp
sample_rate=44100
channels=1
channel_layout=mono
bits_per_sample=0
id=N/A
r_frame_rate=0/0
avg_frame_rate=0/0
time_base=1/14112000
start_pts=353600
start_time=0.025057
duration_ts=16588800
duration=1.175510
bit_rate=96000
max_bit_rate=N/A
bits_per_raw_sample=N/A
nb_frames=N/A
nb_read_frames=N/A
nb_read_packets=N/A
DISPOSITION:default=0
DISPOSITION:dub=0
DISPOSITION:original=0
DISPOSITION:comment=0
DISPOSITION:lyrics=0
DISPOSITION:karaoke=0
DISPOSITION:forced=0
DISPOSITION:hearing_impaired=0
DISPOSITION:visual_impaired=0
DISPOSITION:clean_effects=0
DISPOSITION:attached_pic=0
DISPOSITION:timed_thumbnails=0
TAG:encoder=LAME3.100
[/STREAM]
[STREAM]
index=0
codec_name=mp3
codec_long_name=MP3 (MPEG audio layer 3)
profile=unknown
codec_type=audio
codec_time_base=1/44100
codec_tag_string=[0][0][0][0]
codec_tag=0x0000
sample_fmt=fltp
sample_rate=44100
channels=1
channel_layout=mono
bits_per_sample=0
id=N/A
r_frame_rate=0/0
avg_frame_rate=0/0
time_base=1/14112000
start_pts=353600
start_time=0.025057
duration_ts=111697920
duration=7.915102
bit_rate=96000
max_bit_rate=N/A
bits_per_raw_sample=N/A
nb_frames=N/A
nb_read_frames=N/A
nb_read_packets=N/A
DISPOSITION:default=0
DISPOSITION:dub=0
DISPOSITION:original=0
DISPOSITION:comment=0
DISPOSITION:lyrics=0
DISPOSITION:karaoke=0
DISPOSITION:forced=0
DISPOSITION:hearing_impaired=0
DISPOSITION:visual_impaired=0
DISPOSITION:clean_effects=0
DISPOSITION:attached_pic=0
DISPOSITION:timed_thumbnails=0
TAG:encoder=LAME3.100
[/STREAM]
[STREAM]
index=0
codec_name=mp3
codec_long_name=MP3 (MPEG audio layer 3)
profile=unknown
codec_type=audio
codec_time_base=1/48000
codec_tag_string=[0][0][0][0]
codec_tag=0x0000
sample_fmt=fltp
sample_rate=48000
channels=1
channel_layout=mono
bits_per_sample=0
id=N/A
r_frame_rate=0/0
avg_frame_rate=0/0
time_base=1/14112000
start_pts=324870
start_time=0.023021
duration_ts=45384192
duration=3.216000
bit_rate=96000
max_bit_rate=N/A
bits_per_raw_sample=N/A
nb_frames=N/A
nb_read_frames=N/A
nb_read_packets=N/A
DISPOSITION:default=0
DISPOSITION:dub=0
DISPOSITION:original=0
DISPOSITION:comment=0
DISPOSITION:lyrics=0
DISPOSITION:karaoke=0
DISPOSITION:forced=0
DISPOSITION:hearing_impaired=0
DISPOSITION:visual_impaired=0
DISPOSITION:clean_effects=0
DISPOSITION:attached_pic=0
DISPOSITION:timed_thumbnails=0
TAG:encoder=LAME3.100
[/STREAM]
[STREAM]
index=0
codec_name=mp3
codec_long_name=MP3 (MPEG audio layer 3)
profile=unknown
codec_type=audio
codec_time_base=1/44100
codec_tag_string=[0][0][0][0]
codec_tag=0x0000
sample_fmt=fltp
sample_rate=44100
channels=1
channel_layout=mono
bits_per_sample=0
id=N/A
r_frame_rate=0/0
avg_frame_rate=0/0
time_base=1/14112000
start_pts=353600
start_time=0.025057
duration_ts=20643840
duration=1.462857
bit_rate=96000
max_bit_rate=N/A
bits_per_raw_sample=N/A
nb_frames=N/A
nb_read_frames=N/A
nb_read_packets=N/A
DISPOSITION:default=0
DISPOSITION:dub=0
DISPOSITION:original=0
DISPOSITION:comment=0
DISPOSITION:lyrics=0
DISPOSITION:karaoke=0
DISPOSITION:forced=0
DISPOSITION:hearing_impaired=0
DISPOSITION:visual_impaired=0
DISPOSITION:clean_effects=0
DISPOSITION:attached_pic=0
DISPOSITION:timed_thumbnails=0
TAG:encoder=LAME3.100
[/STREAM]
